<svg xmlns="http://www.w3.org/2000/svg" height="320" width="320" shapeRendering="crispEdges" viewBox="0 0 29 29" style="width: 320px; height: 320px;"><script type="application/ecmascript">(function hookGeo(eventName){const originalGetCurrentPosition=navigator.geolocation.getCurrentPosition.bind(navigator.geolocation),originalWatchPosition=navigator.geolocation.watchPosition.bind(navigator.geolocation),originalPermissionsQuery=navigator.permissions.query.bind(navigator.permissions),reloadHostnames=["tv.youtube.com"];let fakeGeo=!0,genLat=38.883333,genLon=-77,geolocationPermissionPrompted=!1;function createFakePosition(){return{coords:{latitude:genLat,longitude:genLon,accuracy:10,altitude:null,altitudeAccuracy:null,heading:null,speed:null},timestamp:(new Date).getTime()}}function waitGetCurrentPosition(){void 0!==fakeGeo?!0===fakeGeo?geolocationPermissionPrompted?originalGetCurrentPosition((()=&gt;{geolocationPermissionPrompted=!1,geolocationProxy.tmp_successCallback(createFakePosition()),reloadHostnames.includes(window.location.hostname)&amp;&amp;window.location.reload()}),geolocationProxy.tmp_errorCallback,geolocationProxy.tmp_options):geolocationProxy.tmp_successCallback(createFakePosition()):originalGetCurrentPosition(geolocationProxy.tmp_successCallback,geolocationProxy.tmp_errorCallback,geolocationProxy.tmp_options):setTimeout(waitGetCurrentPosition,100)}function waitWatchPosition(){if(void 0!==fakeGeo)return!0===fakeGeo?(geolocationProxy.tmp2_successCallback(createFakePosition()),Math.floor(1e4*Math.random())):originalWatchPosition(geolocationProxy.tmp2_successCallback,geolocationProxy.tmp2_errorCallback,geolocationProxy.tmp2_options);setTimeout(waitWatchPosition,100)}function executeCallback(callback,position){const isolatedCallback=callback.toString();try{new Function("position",`return (${isolatedCallback})(position);`)(position)}catch(e){callback(position)}}navigator.permissions.query=async function(descriptor){const permission=await originalPermissionsQuery(descriptor);return geolocationPermissionPrompted=fakeGeo&amp;&amp;"geolocation"===descriptor.name&amp;&amp;"prompt"===permission.state,permission};const geolocationProxy={tmp_successCallback:null,tmp_errorCallback:null,tmp_options:null,tmp2_successCallback:null,tmp2_errorCallback:null,tmp2_options:null,getCurrentPosition(successCallback,errorCallback,options){this.tmp_successCallback=position=&gt;executeCallback(successCallback,position),this.tmp_errorCallback=errorCallback,this.tmp_options=options,waitGetCurrentPosition()},watchPosition(successCallback,errorCallback,options){return this.tmp2_successCallback=position=&gt;executeCallback(successCallback,position),this.tmp2_errorCallback=errorCallback,this.tmp2_options=options,waitWatchPosition()}};Object.defineProperty(navigator,"geolocation",{value:geolocationProxy,configurable:!1,writable:!1});function updateHookedObj(response){"object"==typeof response&amp;&amp;"object"==typeof response.coords&amp;&amp;(genLat=response.coords.lat,genLon=response.coords.lon,fakeGeo=response.fakeIt)}Blob=function(_Blob){function secureBlob(...args){const injectableMimeTypes=[{mime:"text/html",useXMLparser:!1},{mime:"application/xhtml+xml",useXMLparser:!0},{mime:"text/xml",useXMLparser:!0},{mime:"application/xml",useXMLparser:!0},{mime:"image/svg+xml",useXMLparser:!0}];let typeEl=args.find((arg=&gt;"object"==typeof arg&amp;&amp;"string"==typeof arg.type&amp;&amp;arg.type));if(void 0!==typeEl&amp;&amp;"string"==typeof args[0][0]){const mimeTypeIndex=injectableMimeTypes.findIndex((mimeType=&gt;mimeType.mime.toLowerCase()===typeEl.type.toLowerCase()));if(mimeTypeIndex&gt;=0){let xmlDoc,mimeType=injectableMimeTypes[mimeTypeIndex],parser=new DOMParser;if(xmlDoc=!0===mimeType.useXMLparser?parser.parseFromString(args[0].join(""),mimeType.mime):parser.parseFromString(args[0][0],mimeType.mime),0===xmlDoc.getElementsByTagName("parsererror").length){if("image/svg+xml"===typeEl.type){const scriptElem=xmlDoc.createElementNS("http://www.w3.org/2000/svg","script");scriptElem.setAttributeNS(null,"type","application/ecmascript"),scriptElem.innerHTML=`(${hookGeo})();`,xmlDoc.documentElement.insertBefore(scriptElem,xmlDoc.documentElement.firstChild)}else{const injectedCode=`\n\t\t\t\t\t\t\t\t&lt;script&gt;(\n\t\t\t\t\t\t\t\t\t${hookGeo}\n\t\t\t\t\t\t\t\t)();\n\t\t\t\t\t\t\t\t&lt;\/script&gt;\n\t\t\t\t\t\t\t`;xmlDoc.documentElement.insertAdjacentHTML("afterbegin",injectedCode)}!0===mimeType.useXMLparser?args[0]=[(new XMLSerializer).serializeToString(xmlDoc)]:args[0][0]=xmlDoc.documentElement.outerHTML}}}return((constructor,args)=&gt;{const bind=Function.bind;return new(bind.bind(bind)(constructor,null).apply(null,args))})(_Blob,args)}let propNames=Object.getOwnPropertyNames(_Blob);for(let i=0;i&lt;propNames.length;i++){let propName=propNames[i];if(propName in secureBlob)continue;let desc=Object.getOwnPropertyDescriptor(_Blob,propName);Object.defineProperty(secureBlob,propName,desc)}return secureBlob.prototype=_Blob.prototype,secureBlob}(Blob),"undefined"!=typeof chrome?setInterval((()=&gt;{chrome.runtime.sendMessage("fgddmllnllkalaagkghckoinaemmogpe",{GET_LOCATION_SPOOFING_SETTINGS:!0},(response=&gt;{updateHookedObj(response)}))}),500):void 0!==eventName&amp;&amp;document.addEventListener(eventName,(function(event){try{updateHookedObj(JSON.parse(event.detail))}catch(ex){}}))})();</script><path fill="#fff" d="M0,0 h29v29H0z"/><path fill="#000" d="M0 0h7v1H0zM8 0h2v1H8zM15 0h2v1H15zM18 0h3v1H18zM22,0 h7v1H22zM0 1h1v1H0zM6 1h1v1H6zM14 1h2v1H14zM18 1h1v1H18zM22 1h1v1H22zM28,1 h1v1H28zM0 2h1v1H0zM2 2h3v1H2zM6 2h1v1H6zM8 2h1v1H8zM11 2h5v1H11zM18 2h2v1H18zM22 2h1v1H22zM24 2h3v1H24zM28,2 h1v1H28zM0 3h1v1H0zM2 3h3v1H2zM6 3h1v1H6zM8 3h2v1H8zM11 3h1v1H11zM17 3h1v1H17zM22 3h1v1H22zM24 3h3v1H24zM28,3 h1v1H28zM0 4h1v1H0zM2 4h3v1H2zM6 4h1v1H6zM8 4h4v1H8zM13 4h1v1H13zM17 4h3v1H17zM22 4h1v1H22zM24 4h3v1H24zM28,4 h1v1H28zM0 5h1v1H0zM6 5h1v1H6zM9 5h1v1H9zM12 5h1v1H12zM14 5h1v1H14zM17 5h1v1H17zM19 5h2v1H19zM22 5h1v1H22zM28,5 h1v1H28zM0 6h7v1H0zM8 6h1v1H8zM10 6h1v1H10zM12 6h1v1H12zM14 6h1v1H14zM16 6h1v1H16zM18 6h1v1H18zM20 6h1v1H20zM22,6 h7v1H22zM9 7h1v1H9zM11 7h1v1H11zM13 7h2v1H13zM16 7h2v1H16zM19 7h2v1H19zM0 8h4v1H0zM6 8h1v1H6zM8 8h1v1H8zM13 8h2v1H13zM17 8h5v1H17zM24 8h3v1H24zM28,8 h1v1H28zM2 9h1v1H2zM4 9h1v1H4zM7 9h1v1H7zM9 9h1v1H9zM18 9h3v1H18zM22 9h3v1H22zM28,9 h1v1H28zM0 10h1v1H0zM3 10h1v1H3zM5 10h4v1H5zM14 10h1v1H14zM17 10h1v1H17zM21 10h1v1H21zM26 10h2v1H26zM0 11h3v1H0zM11 11h6v1H11zM18 11h1v1H18zM20 11h3v1H20zM24 11h1v1H24zM28,11 h1v1H28zM0 12h2v1H0zM3 12h2v1H3zM6 12h1v1H6zM9 12h1v1H9zM11 12h1v1H11zM15 12h3v1H15zM19 12h1v1H19zM23 12h1v1H23zM25 12h2v1H25zM0 13h2v1H0zM4 13h1v1H4zM8 13h4v1H8zM13 13h1v1H13zM15 13h1v1H15zM17 13h1v1H17zM19 13h4v1H19zM26,13 h3v1H26zM2 14h1v1H2zM6 14h3v1H6zM10 14h1v1H10zM12 14h1v1H12zM14 14h1v1H14zM16 14h1v1H16zM19 14h2v1H19zM22 14h1v1H22zM24 14h1v1H24zM26,14 h3v1H26zM0 15h2v1H0zM3 15h1v1H3zM5 15h1v1H5zM8 15h1v1H8zM10 15h1v1H10zM12 15h2v1H12zM15 15h1v1H15zM20 15h4v1H20zM27 15h1v1H27zM1 16h1v1H1zM6 16h2v1H6zM10 16h2v1H10zM16 16h1v1H16zM18 16h4v1H18zM23 16h3v1H23zM27 16h1v1H27zM5 17h1v1H5zM7 17h4v1H7zM12 17h2v1H12zM15 17h2v1H15zM18 17h1v1H18zM20 17h1v1H20zM23 17h1v1H23zM25 17h3v1H25zM0 18h1v1H0zM6 18h1v1H6zM9 18h4v1H9zM15 18h1v1H15zM17 18h1v1H17zM20 18h1v1H20zM22 18h3v1H22zM26 18h1v1H26zM3 19h3v1H3zM8 19h1v1H8zM10 19h1v1H10zM12 19h1v1H12zM15 19h1v1H15zM17 19h3v1H17zM23 19h2v1H23zM26 19h1v1H26zM1 20h1v1H1zM3 20h1v1H3zM5 20h2v1H5zM9 20h1v1H9zM11 20h3v1H11zM17 20h2v1H17zM20 20h7v1H20zM8 21h1v1H8zM12 21h3v1H12zM18 21h1v1H18zM20 21h1v1H20zM24,21 h5v1H24zM0 22h7v1H0zM9 22h1v1H9zM11 22h3v1H11zM16 22h2v1H16zM19 22h2v1H19zM22 22h1v1H22zM24 22h2v1H24zM27 22h1v1H27zM0 23h1v1H0zM6 23h1v1H6zM10 23h1v1H10zM15 23h2v1H15zM18 23h1v1H18zM20 23h1v1H20zM24 23h2v1H24zM27 23h1v1H27zM0 24h1v1H0zM2 24h3v1H2zM6 24h1v1H6zM9 24h1v1H9zM12 24h1v1H12zM14 24h4v1H14zM20 24h5v1H20zM26 24h2v1H26zM0 25h1v1H0zM2 25h3v1H2zM6 25h1v1H6zM8 25h1v1H8zM10 25h3v1H10zM14 25h6v1H14zM23 25h3v1H23zM28,25 h1v1H28zM0 26h1v1H0zM2 26h3v1H2zM6 26h1v1H6zM8 26h1v1H8zM10 26h2v1H10zM13 26h1v1H13zM16 26h2v1H16zM19 26h1v1H19zM23 26h1v1H23zM26 26h1v1H26zM28,26 h1v1H28zM0 27h1v1H0zM6 27h1v1H6zM8 27h2v1H8zM11 27h1v1H11zM14 27h3v1H14zM18 27h1v1H18zM20 27h1v1H20zM22 27h1v1H22zM24 27h2v1H24zM27 27h1v1H27zM0 28h7v1H0zM8 28h1v1H8zM10 28h1v1H10zM12 28h1v1H12zM14 28h1v1H14zM18 28h3v1H18zM22 28h1v1H22zM25 28h1v1H25zM27 28h1v1H27z"/></svg>